# xmcd CD database file
#
# Track frame offsets:
#	150
#	16591
#	34996
#	47371
#	63919
#	76908
#	98402
#	117212
#	134704
#	172751
#
# Disc length: 2563 seconds
#
# Revision: 0
# Processed by: cddbd v1.5.2PL0 Copyright (c) Steve Scherf et al.
# Submitted via: CDex 1.70beta2
#
DISCID=6c0a010a
DTITLE=Coal - Lose sleep at night
DYEAR=2011
DGENRE=Country
TTITLE0=Like an old time coutry song
TTITLE1=Trapped on track
TTITLE2=Beautiful Sue
TTITLE3=Trust is a choice
TTITLE4=It's not the time
TTITLE5=For love's sake
TTITLE6=Ropes of sand
TTITLE7=A proposal for the road
TTITLE8=Lose sleep at night
TTITLE9=Take this world for a spin
EXTD=YEAR: 2011
EXTT0=
EXTT1=
EXTT2=
EXTT3=
EXTT4=
EXTT5=
EXTT6=
EXTT7=
EXTT8=
EXTT9=
PLAYORDER=
